<?xml version="1.0" standalone="no"?>
<!DOCTYPE svg PUBLIC "-//W3C//DTD SVG 20010904//EN"
 "http://www.w3.org/TR/2001/REC-SVG-20010904/DTD/svg10.dtd">
<svg version="1.0" xmlns="http://www.w3.org/2000/svg"
 width="4059.000000pt" height="4059.000000pt" viewBox="0 0 4059.000000 4059.000000"
 preserveAspectRatio="xMidYMid meet">
<metadata>
Created by potrace 1.14, written by Peter Selinger 2001-2017
</metadata>
<g transform="translate(0.000000,4059.000000) scale(0.100000,-0.100000)"
fill="#000000" stroke="none">
<path d="M19625 38890 c-3060 -117 -5964 -943 -8574 -2439 -2879 -1651 -5261
-4033 -6912 -6912 -807 -1408 -1431 -2933 -1843 -4504 -561 -2144 -735 -4432
-506 -6655 278 -2686 1145 -5292 2531 -7601 976 -1628 2181 -3084 3594 -4343
1457 -1298 3135 -2375 4910 -3151 1966 -859 4037 -1364 6190 -1510 794 -53
1713 -53 2515 1 2107 141 4146 630 6070 1457 4373 1878 7879 5384 9757 9757
826 1923 1316 3964 1457 6070 54 803 54 1716 1 2515 -89 1321 -320 2640 -679
3885 -125 432 -116 413 -108 230 11 -253 7 -1098 -6 -1310 -108 -1672 -494
-3172 -1196 -4648 -650 -1367 -1610 -2677 -2721 -3712 -2085 -1943 -4688
-3097 -7505 -3325 -626 -50 -1368 -50 -2005 1 -3107 247 -6007 1659 -8133
3959 -1835 1984 -2970 4496 -3242 7168 -74 738 -83 1543 -24 2282 217 2726
1318 5275 3169 7335 164 182 656 678 835 841 1967 1790 4393 2891 7010 3183
530 59 987 81 1555 73 416 -6 546 -12 905 -42 292 -25 815 -90 970 -121 35 -7
-5 11 -255 116 -1393 582 -2958 1009 -4481 1224 -583 82 -1106 132 -1754 166
-260 14 -1249 20 -1525 10z"/>
<path d="M25225 31664 c-428 -31 -720 -72 -1066 -149 -1757 -392 -3292 -1506
-4216 -3060 -436 -734 -732 -1569 -848 -2393 -14 -97 -27 -193 -30 -212 -3
-23 23 19 79 130 238 473 510 847 890 1225 251 250 462 422 747 608 1474 964
3378 1017 4909 134 615 -354 1161 -866 1558 -1458 449 -668 712 -1428 782
-2254 13 -155 13 -566 0 -720 -69 -807 -319 -1543 -748 -2200 -455 -698 -1095
-1271 -1834 -1641 -487 -244 -1009 -399 -1588 -471 -208 -26 -821 -26 -1030 0
-80 10 -156 20 -170 23 -33 7 66 -46 220 -116 1177 -536 2492 -710 3790 -499
1894 306 3573 1448 4567 3104 510 851 806 1752 910 2775 14 138 18 266 18 605
0 460 -8 588 -61 955 -261 1830 -1306 3483 -2855 4517 -241 161 -415 262 -684
398 -753 381 -1489 594 -2355 681 -155 15 -846 28 -985 18z"/>
</g>
</svg>
