<svg id="レイヤー_1" data-name="レイヤー 1" xmlns="http://www.w3.org/2000/svg" xmlns:xlink="http://www.w3.org/1999/xlink" viewBox="0 0 1000 1000"><defs><clipPath id="clip-path"><path d="M785.59,385.24a157.83,157.83,0,0,1-229,140.86,114.28,114.28,0,0,0,17.06,1.29A112.81,112.81,0,1,0,470.94,368a157.8,157.8,0,0,1,314.65,17.22Zm140.29-18.08c.36,6,.56,12,.56,18.08,0,164.93-133.7,298.64-298.64,298.64S329.16,550.17,329.16,385.24,462.87,86.6,627.8,86.6a301,301,0,0,1,49.66,4.13A444.53,444.53,0,0,0,500,54C253.68,54,54,253.68,54,500S253.68,946,500,946,946,746.32,946,500A445.9,445.9,0,0,0,925.88,367.16Z" style="fill:none"/></clipPath><linearGradient id="名称未設定グラデーション_81" x1="119.58" y1="158.32" x2="863.55" y2="826.53" gradientUnits="userSpaceOnUse"><stop offset="0" stop-color="#2bc4cf"/><stop offset="0.52" stop-color="#572bcf"/><stop offset="1" stop-color="#cf2ba1"/></linearGradient></defs><circle cx="500.5" cy="500.5" r="487" style="fill:#fff"/><g style="clip-path:url(#clip-path)"><rect width="1000" height="1000" style="fill:url(#名称未設定グラデーション_81)"/></g></svg>